<svg width="120" height="120" viewBox="0 0 120 120" fill="none" xmlns="http://www.w3.org/2000/svg">
<g clip-path="url(#clip0_250_494)">
<path d="M92.4865 89.4804V99.8104L87.9217 97.1752L80.3383 92.7958L77.0721 80.969L68.7464 106.763L61.8803 102.792L61.8185 102.458L61.7072 101.852L52.0825 48.6927L51.9834 48.1484L51.971 48.2103L48.0371 66.3587L37.5835 114.581L30.7175 110.623L18.2226 56.9319L2.47412 47.8391V37.5091L24.866 50.4371L33.3032 86.6844L42.5443 44.3132L43.2125 41.2701L44.5483 35.1464L48.3835 17.5424L55.5836 21.6989L61.8927 56.6723L66.1607 80.3505L68.8702 72L73.4722 57.8474L79.8804 61.5464L84.3093 77.6536L86.6349 86.1031L92.4865 89.4804Z" fill="#490878" stroke="white" stroke-linecap="round" stroke-linejoin="round"/>
<path d="M44.5483 35.1464L43.2125 41.2701L40.0206 42.866L24.866 50.4372L2.47412 37.5092L27.2164 25.1381L44.5483 35.1464Z" fill="#490878" stroke="white" stroke-linecap="round" stroke-linejoin="round"/>
<path d="M43.212 41.2701L42.5438 44.3133L33.3027 86.6844L24.8655 50.4372L40.0201 42.866L43.212 41.2701Z" fill="#490878" stroke="white" stroke-linecap="round" stroke-linejoin="round"/>
<path d="M80.3263 9.32783L71.2334 13.8679V13.8803L55.584 21.6989L48.384 17.5423L73.1263 5.17114L80.3263 9.32783Z" fill="#490878" stroke="white" stroke-linecap="round" stroke-linejoin="round"/>
<path d="M111.378 73.732L104.215 77.3073L98.0044 80.4124V80.4248L86.6355 86.1031L84.3099 77.6536L79.8809 61.5464L81.2666 60.8538L88.9243 57.0186L95.5426 53.7155L104.623 49.1753L111.378 73.732Z" fill="#490878" stroke="white" stroke-linecap="round" stroke-linejoin="round"/>
<path d="M104.623 49.1753L95.5429 53.7155L88.9244 57.0186L81.2668 60.8538L79.8812 61.5464L73.4729 57.8475L80.1161 54.5195L87.7861 50.6969L98.2152 45.4763L104.623 49.1753Z" fill="#490878" stroke="white" stroke-linecap="round" stroke-linejoin="round"/>
<path d="M117.229 77.1093L107.642 81.9093L95.5673 87.934V87.9464L92.487 89.4804L86.6355 86.1031L98.0045 80.4247V80.4123L104.215 77.3072L111.378 73.7319L117.229 77.1093Z" fill="#490878" stroke="white" stroke-linecap="round" stroke-linejoin="round"/>
<path d="M117.229 77.1093V87.4393L92.4863 99.8104V89.4804L95.5667 87.9464V87.934L107.641 81.9092L117.229 77.1093Z" fill="#490878" stroke="white" stroke-linecap="round" stroke-linejoin="round"/>
<path d="M87.7851 50.6969L80.115 54.5195L73.4718 57.8474L68.8699 72L66.1603 80.3505L61.8923 56.6723L55.5833 21.699L71.2326 13.8804V13.868L80.3255 9.32788L87.7851 50.6969Z" fill="#490878" stroke="white" stroke-linecap="round" stroke-linejoin="round"/>
<path d="M87.9221 97.1753L68.7468 106.763L77.0726 80.9691L80.3387 92.7959L87.9221 97.1753Z" fill="#490878" stroke="white" stroke-linecap="round" stroke-linejoin="round"/>
<path d="M61.8183 102.458L37.5835 114.581L48.037 66.3588L51.971 48.2103L52.0825 48.6928L61.7072 101.852L61.8183 102.458Z" fill="#490878" stroke="white" stroke-linecap="round" stroke-linejoin="round"/>
<path d="M69.9197 53.9788L62.8129 57.5271L62.099 57.8892L53.9991 92.7409L49.6233 66.6719L45.444 41.7306L41.3474 17.3271L62.0371 6.9823L69.9197 53.9788Z" fill="#490878" stroke="white" stroke-width="0.413793" stroke-linecap="round" stroke-linejoin="round"/>
<path d="M62.037 6.98247L41.3474 17.3273L33.1438 12.5997L53.8335 2.25488L62.037 6.98247Z" fill="#490878" stroke="white" stroke-width="0.413793" stroke-linecap="round" stroke-linejoin="round"/>
<path d="M98.554 89.9792L91.6541 93.4342L80.5024 98.9997V99.0101L77.8644 100.324L70.3955 62.6791L71.306 62.2239L80.4402 57.6618V57.6516L91.0852 52.3342L98.554 89.9792Z" fill="#490878" stroke="white" stroke-width="0.413793" stroke-linecap="round" stroke-linejoin="round"/>
<path d="M91.1472 107.99V117.517L75.6196 108.559L71.43 106.138L70.7059 102.476L68.399 90.7446L66.4543 80.8756L57.9402 117.393L49.644 112.603L43.0853 73.5825L41.9472 66.8273L40.1783 56.2756L37.1887 38.5032L34.1268 52.7894L32.3164 61.2618L28.0646 81.0928L8.14038 69.5997V60.0721L21.4232 67.7377L24.8264 51.7342V51.7239L33.1438 12.5997L41.3473 17.3273L45.4439 41.7308L49.6232 66.6721L53.9991 92.7411L62.099 57.8894L62.9576 58.3859L70.3955 62.679L77.8644 100.324L79.923 101.514L91.1472 107.99Z" fill="#490878" stroke="white" stroke-width="0.413793" stroke-linecap="round" stroke-linejoin="round"/>
<path d="M75.6198 108.559L57.9404 117.393L66.4545 80.8756L68.3992 90.7446L70.706 102.476L71.4302 106.138L75.6198 108.559Z" fill="#490878" stroke="white" stroke-width="0.413793" stroke-linecap="round" stroke-linejoin="round"/>
<path d="M111.837 97.6443L102.992 102.072L91.1474 107.989L79.9231 101.513L77.8645 100.324L80.5025 99.0098V98.9995L91.6543 93.4339L98.5542 89.9788L111.837 97.6443Z" fill="#490878" stroke="white" stroke-width="0.413793" stroke-linecap="round" stroke-linejoin="round"/>
<path d="M91.0853 52.3345L80.4404 57.6517V57.6619L71.3061 62.2241L70.3957 62.6793L62.9577 58.3861L62.0991 57.8896L62.813 57.5275L69.9198 53.9792L82.7888 47.5448L91.0853 52.3345Z" fill="#490878" stroke="white" stroke-width="0.413793" stroke-linecap="round" stroke-linejoin="round"/>
<path d="M111.837 97.6444V107.172L91.1475 117.517V107.99L102.992 102.072L111.837 97.6444Z" fill="#490878" stroke="white" stroke-width="0.413793" stroke-linecap="round" stroke-linejoin="round"/>
<path d="M43.0854 73.5825L28.0647 81.0928L32.3165 61.2618L34.1269 52.7894L37.1888 38.5032L40.1784 56.2756L41.9474 66.8273L43.0854 73.5825Z" fill="#490878" stroke="white" stroke-width="0.413793" stroke-linecap="round" stroke-linejoin="round"/>
<path d="M24.8264 51.7343L21.4232 67.7377L8.14038 60.0722L24.8264 51.7343Z" fill="#490878" stroke="white" stroke-width="0.413793" stroke-linecap="round" stroke-linejoin="round"/>
</g>
<defs>
<clipPath id="clip0_250_494">
<rect width="120" height="120" fill="white"/>
</clipPath>
</defs>
</svg>
