<svg width="48" height="48" viewBox="0 0 48 48" fill="none" xmlns="http://www.w3.org/2000/svg">
<path d="M28.2819 7.2194C26.4885 3.73843 21.5115 3.73843 19.7181 7.2194C18.8642 8.87681 16.9378 9.67474 15.1621 9.10657C11.4325 7.91328 7.91328 11.4325 9.10657 15.1621C9.67474 16.9378 8.87681 18.8642 7.2194 19.7181C3.73843 21.5115 3.73843 26.4885 7.2194 28.2819C8.87681 29.1358 9.67474 31.0622 9.10657 32.8379C7.91328 36.5675 11.4325 40.0867 15.1621 38.8934C16.9378 38.3253 18.8642 39.1232 19.7181 40.7806C21.5115 44.2616 26.4885 44.2616 28.2819 40.7806C29.1358 39.1232 31.0622 38.3253 32.8379 38.8934C36.5675 40.0867 40.0867 36.5675 38.8934 32.8379C38.3253 31.0622 39.1232 29.1358 40.7806 28.2819C44.2616 26.4885 44.2616 21.5115 40.7806 19.7181C39.1232 18.8642 38.3253 16.9378 38.8934 15.1621C40.0867 11.4325 36.5675 7.91328 32.8379 9.10657C31.0622 9.67474 29.1358 8.87681 28.2819 7.2194Z" fill="#CD7F32" stroke="#A0522D"/>
<path d="M23.604 23.12C24.372 23.136 25.092 22.72 25.092 21.792C25.092 21.136 24.532 20.688 23.604 20.688C22.756 20.688 22.212 21.104 22.132 21.712L19.316 21.584C19.524 19.648 21.252 18.384 23.668 18.384C26.34 18.384 27.972 19.504 27.972 21.344C27.972 22.656 27.092 23.536 25.46 23.856C27.332 24.208 28.356 25.296 28.356 26.88C28.356 28.96 26.58 30.256 23.668 30.256C21.012 30.256 19.22 28.784 19.108 26.528L21.956 26.432C22.068 27.44 22.884 27.952 23.684 27.952C24.612 27.952 25.476 27.44 25.476 26.4C25.476 25.392 24.58 24.88 23.604 24.896L22.58 24.912V23.104L23.604 23.12Z" fill="white"/>
</svg>
