<svg width="48" height="48" viewBox="0 0 48 48" fill="none" xmlns="http://www.w3.org/2000/svg">
<path d="M28.2819 7.2194C26.4885 3.73843 21.5115 3.73843 19.7181 7.2194C18.8642 8.87681 16.9378 9.67474 15.1621 9.10657C11.4325 7.91328 7.91328 11.4325 9.10657 15.1621C9.67474 16.9378 8.87681 18.8642 7.2194 19.7181C3.73843 21.5115 3.73843 26.4885 7.2194 28.2819C8.87681 29.1358 9.67474 31.0622 9.10657 32.8379C7.91328 36.5675 11.4325 40.0867 15.1621 38.8934C16.9378 38.3253 18.8642 39.1232 19.7181 40.7806C21.5115 44.2616 26.4885 44.2616 28.2819 40.7806C29.1358 39.1232 31.0622 38.3253 32.8379 38.8934C36.5675 40.0867 40.0867 36.5675 38.8934 32.8379C38.3253 31.0622 39.1232 29.1358 40.7806 28.2819C44.2616 26.4885 44.2616 21.5115 40.7806 19.7181C39.1232 18.8642 38.3253 16.9378 38.8934 15.1621C40.0867 11.4325 36.5675 7.91328 32.8379 9.10657C31.0622 9.67474 29.1358 8.87681 28.2819 7.2194Z" fill="#FFD700" stroke="#DAA520"/>
<path d="M21.812 20.864C23.316 20.864 24.036 20.144 24.052 18.64H26.228V30H23.46V22.848H20.948V20.864H21.812Z" fill="white"/>
</svg>
